<svg xmlns="http://www.w3.org/2000/svg" viewBox="0 0 100 100">
  <rect width="100" height="100" fill="#111"/>
  <g transform="translate(50,50)">
    <line x1="0" y1="-42" x2="0" y2="-17" stroke="white" stroke-width="2.5" stroke-linecap="round"/>
    <line x1="0" y1="17" x2="0" y2="42" stroke="white" stroke-width="2.5" stroke-linecap="round"/>
    <line x1="-42" y1="0" x2="-17" y2="0" stroke="white" stroke-width="2.5" stroke-linecap="round"/>
    <line x1="17" y1="0" x2="42" y2="0" stroke="white" stroke-width="2.5" stroke-linecap="round"/>
    <line x1="-30" y1="-30" x2="-11" y2="-11" stroke="white" stroke-width="1.5" stroke-linecap="round" opacity="0.6"/>
    <line x1="11" y1="11" x2="30" y2="30" stroke="white" stroke-width="1.5" stroke-linecap="round" opacity="0.6"/>
    <line x1="30" y1="-30" x2="11" y2="-11" stroke="white" stroke-width="1.5" stroke-linecap="round" opacity="0.6"/>
    <line x1="-11" y1="11" x2="-30" y2="30" stroke="white" stroke-width="1.5" stroke-linecap="round" opacity="0.6"/>
    <polygon points="0,-17 3.3,-3.3 17,0 3.3,3.3 0,17 -3.3,3.3 -17,0 -3.3,-3.3" fill="white"/>
    <polygon points="0,-17 2,-2 17,0 2,2 0,17 -2,2 -17,0 -2,-2" fill="white" opacity="0.3" transform="rotate(45) scale(0.55)"/>
  </g>
</svg>
